# xmcd
#
# Track frame offsets:
#	150
#	10101
#	21102
#	31600
#	46723
#	59590
#	69487
#	80712
#	92973
#	104723
#	116601
#	128702
#	138937
#	152469
#	165152
#
# Disc length: 2357 seconds
#
# Revision: 1
# Processed by: cddbd v1.5.2PL0 Copyright (c) Steve Scherf et al.
# Submitted via: audiograbber 1.83.01
#
DISCID=b609330f
DTITLE=Bert Kaempfert - Christmas Legends
DYEAR=1900
DGENRE=
TTITLE0=Winter Wonderland
TTITLE1=Santa Claus is coming to town
TTITLE2=Holiday for bells
TTITLE3=Children's christmas dream
TTITLE4=The little drummer boy
TTITLE5=Jingo Jango
TTITLE6=Sleigh Ride
TTITLE7=White Christmas
TTITLE8=Toy parade
TTITLE9=I heard the bells on christmas day
TTITLE10=Christmas Wonderland
TTITLE11=Jumpin Jiminy Christmas
TTITLE12=Sweet dreams
TTITLE13=Magnolia blossoms
TTITLE14=Just a dream
EXTD=
EXTT0=
EXTT1=
EXTT2=
EXTT3=
EXTT4=
EXTT5=
EXTT6=
EXTT7=
EXTT8=
EXTT9=
EXTT10=
EXTT11=
EXTT12=
EXTT13=
EXTT14=
PLAYORDER=
